<svg viewBox="0 0 600 400" xmlns="http://www.w3.org/2000/svg"><style>text { font-size: 8px; }</style><g><g><rect fill="hsl(0,100%,50%)" x="20" y="0" width="30.714285714285715" height="120.04316546762591" transform="scale(1, -1) translate(0, -400)"/><text x="0" y="0" transform="translate(50.714285714285715, 400) rotate(-90)">generate</text><text x="20" y="259.9568345323741">22.248</text></g><g><rect fill="hsl(25,100%,50%)" x="60.714285714285715" y="0" width="30.714285714285715" height="83.41726618705037" transform="scale(1, -1) translate(0, -400)"/><text x="0" y="0" transform="translate(91.42857142857143, 400) rotate(-90)">validate</text><text x="60.714285714285715" y="296.58273381294964">15.46</text></g><g><rect fill="hsl(51,100%,50%)" x="101.42857142857143" y="0" width="30.714285714285715" height="43.07913669064748" transform="scale(1, -1) translate(0, -400)"/><text x="0" y="0" transform="translate(132.14285714285714, 400) rotate(-90)">json</text><text x="101.42857142857143" y="336.9208633093525">7.984</text></g><g><rect fill="hsl(77,100%,50%)" x="142.14285714285714" y="0" width="30.714285714285715" height="27.005395683453237" transform="scale(1, -1) translate(0, -400)"/><text x="0" y="0" transform="translate(172.85714285714286, 400) rotate(-90)">flume</text><text x="142.14285714285714" y="352.99460431654677">5.005</text></g><g><rect fill="hsl(102,100%,50%)" x="182.85714285714286" y="0" width="30.714285714285715" height="114.26438848920864" transform="scale(1, -1) translate(0, -400)"/><text x="0" y="0" transform="translate(213.57142857142858, 400) rotate(-90)">minimal</text><text x="182.85714285714286" y="265.7356115107914">21.177</text></g><g><rect fill="hsl(128,100%,50%)" x="223.57142857142858" y="0" width="30.714285714285715" height="252.74460431654677" transform="scale(1, -1) translate(0, -400)"/><text x="0" y="0" transform="translate(254.2857142857143, 400) rotate(-90)">legacy</text><text x="223.57142857142858" y="127.25539568345323">46.842</text></g><g><rect fill="hsl(154,100%,50%)" x="264.2857142857143" y="0" width="30.714285714285715" height="17.77338129496403" transform="scale(1, -1) translate(0, -400)"/><text x="0" y="0" transform="translate(295, 400) rotate(-90)">random-read</text><text x="264.2857142857143" y="362.22661870503595">3.294</text></g><g><rect fill="hsl(180,100%,50%)" x="305" y="0" width="30.714285714285715" height="84.45863309352518" transform="scale(1, -1) translate(0, -400)"/><text x="0" y="0" transform="translate(335.7142857142857, 400) rotate(-90)">clock-dump</text><text x="305" y="295.5413669064748">15.653</text></g><g><rect fill="hsl(205,100%,50%)" x="345.7142857142857" y="0" width="30.714285714285715" height="28.241007194244606" transform="scale(1, -1) translate(0, -400)"/><text x="0" y="0" transform="translate(376.42857142857144, 400) rotate(-90)">sbot-read</text><text x="345.7142857142857" y="351.7589928057554">5.234</text></g><g><rect fill="hsl(231,100%,50%)" x="386.42857142857144" y="0" width="30.714285714285715" height="28.197841726618705" transform="scale(1, -1) translate(0, -400)"/><text x="0" y="0" transform="translate(417.14285714285717, 400) rotate(-90)">remote-legacy-replicate-write</text><text x="386.42857142857144" y="351.8021582733813">5.226</text></g><g><rect fill="hsl(257,100%,50%)" x="427.14285714285717" y="0" width="30.714285714285715" height="349.3920863309353" transform="scale(1, -1) translate(0, -400)"/><text x="0" y="0" transform="translate(457.8571428571429, 400) rotate(-90)">remote-legacy-replicate-post</text><text x="427.14285714285717" y="30.607913669064715">64.754</text></g><g><rect fill="hsl(282,100%,50%)" x="467.8571428571429" y="0" width="30.714285714285715" height="360" transform="scale(1, -1) translate(0, -400)"/><text x="0" y="0" transform="translate(498.5714285714286, 400) rotate(-90)">remote-ebt-replicate</text><text x="467.8571428571429" y="20">66.72</text></g><g><rect fill="hsl(308,100%,50%)" x="508.57142857142856" y="0" width="30.714285714285715" height="150.29136690647482" transform="scale(1, -1) translate(0, -400)"/><text x="0" y="0" transform="translate(539.2857142857142, 400) rotate(-90)">encrypt</text><text x="508.57142857142856" y="229.70863309352518">27.854</text></g><g><rect fill="hsl(334,100%,50%)" x="549.2857142857143" y="0" width="30.714285714285715" height="66.60971223021583" transform="scale(1, -1) translate(0, -400)"/><text x="0" y="0" transform="translate(580, 400) rotate(-90)">decrypt</text><text x="549.2857142857143" y="313.39028776978415">12.345</text></g></g></svg>
